<svg width="27" height="27" viewBox="0 0 27 27" fill="none" xmlns="http://www.w3.org/2000/svg">
<path d="M8.72266 17.3394C8.72266 17.7981 9.09497 18.1703 9.55371 18.1704H17.4463V26.063C17.4461 26.5216 17.0739 26.8931 16.6152 26.8931H8.72266C3.90528 26.8928 7.98867e-05 22.9878 0 18.1704C0 13.5033 3.6653 9.69201 8.27441 9.4585L8.72266 9.44678V17.3394ZM17.4463 0.724121C22.2637 0.724179 26.1687 4.62939 26.1689 9.44678C26.1689 14.1137 22.5043 17.9248 17.8955 18.1587L17.4463 18.1704V10.2778C17.4462 9.81907 17.074 9.44678 16.6152 9.44678H8.72266V1.55518C8.72266 1.09641 9.09497 0.724211 9.55371 0.724121H17.4463Z" fill="#CB3CFF"/>
<path d="M9.46031 0.724121C9.05318 0.724121 8.72314 1.05416 8.72314 1.46128L8.72315 9.4472H16.7091C17.1162 9.4472 17.4462 9.77723 17.4462 10.1844L17.4462 18.1703C22.2638 18.1703 26.1693 14.2648 26.1693 9.4472C26.1693 4.62957 22.2638 0.724121 17.4462 0.724121H9.46031Z" fill="#00C2FF"/>
</svg>
