<svg width="10" height="11" viewBox="0 0 10 11" fill="none" xmlns="http://www.w3.org/2000/svg">
<path d="M5.00244 0.427734C5.36975 0.427734 5.66744 0.725475 5.66748 1.09277V1.42969C5.9734 1.42977 6.27643 1.48942 6.55908 1.60645C6.84201 1.72364 7.09937 1.89578 7.31592 2.1123C7.53249 2.32887 7.70457 2.58618 7.82178 2.86914C7.93894 3.15205 7.99951 3.45551 7.99951 3.76172C7.99942 4.12898 7.70077 4.42676 7.3335 4.42676C6.96643 4.42651 6.66855 4.12882 6.66846 3.76172C6.66846 3.63013 6.64264 3.4995 6.59229 3.37793C6.54193 3.25646 6.46847 3.14572 6.37549 3.05273C6.28247 2.95974 6.17181 2.88628 6.05029 2.83594C5.92872 2.78558 5.79809 2.75977 5.6665 2.75977H4.1665C3.90076 2.75977 3.64543 2.86482 3.45752 3.05273C3.26964 3.24064 3.16455 3.49599 3.16455 3.76172C3.1646 4.02723 3.26988 4.28189 3.45752 4.46973C3.64543 4.65764 3.90076 4.76367 4.1665 4.76367H6.00049C6.61876 4.76373 7.21164 5.00923 7.64893 5.44629C8.08628 5.88365 8.3325 6.47719 8.33252 7.0957C8.33252 7.71425 8.08631 8.30774 7.64893 8.74512C7.21163 9.18224 6.6188 9.42767 6.00049 9.42773H5.66748V9.7627C5.66744 10.13 5.36975 10.4277 5.00244 10.4277C4.63518 10.4277 4.33744 10.13 4.3374 9.7627V9.42773H3.99951C3.38104 9.42768 2.78743 9.18245 2.3501 8.74512C1.91281 8.30775 1.66748 7.71418 1.66748 7.0957C1.66753 6.72844 1.96525 6.43071 2.33252 6.43066C2.69982 6.43066 2.99751 6.72841 2.99756 7.0957C2.99756 7.36145 3.10359 7.61678 3.2915 7.80469C3.47934 7.99234 3.734 8.0976 3.99951 8.09766H6.00049C6.266 8.0976 6.52067 7.99234 6.7085 7.80469C6.89641 7.61678 7.00244 7.36145 7.00244 7.0957C7.00242 6.83002 6.89634 6.57558 6.7085 6.3877C6.52064 6.19984 6.26615 6.09381 6.00049 6.09375H4.1665C3.54801 6.09375 2.95446 5.84844 2.51709 5.41113C2.07975 4.97379 1.83452 4.38021 1.83447 3.76172C1.83447 3.14319 2.07974 2.54968 2.51709 2.1123C2.95447 1.67493 3.54796 1.42969 4.1665 1.42969H4.3374V1.09277C4.33744 0.725512 4.63518 0.427794 5.00244 0.427734Z" fill="currentColor"/>
</svg>
