<svg width="14" height="15" viewBox="0 0 14 15" fill="none" xmlns="http://www.w3.org/2000/svg">
<path d="M5.88281 8.50525L6.00684 8.59998C6.64692 9.04259 7.51205 9.01083 8.12012 8.50525L13.9375 3.66638C13.9765 3.82228 14 3.98473 14 4.15271V11.1088C14 12.2133 13.1046 13.1088 12 13.1088H2C0.895431 13.1088 0 12.2133 0 11.1088V4.15271C0 3.98407 0.0231963 3.82088 0.0625 3.66443L5.88281 8.50525ZM12 2.15271C12.386 2.15271 12.7452 2.26409 13.0508 2.45349L7.16113 7.35193C7.08006 7.41932 6.96698 7.4279 6.87793 7.37732L6.8418 7.35193L0.950195 2.45251C1.25557 2.26355 1.6145 2.15271 2 2.15271H12Z" fill="currentColor"/>
</svg>
