<svg width="13" height="12" viewBox="0 0 13 12" fill="none" xmlns="http://www.w3.org/2000/svg">
<path d="M5.38574 6.75586L5.51074 6.85059C6.15081 7.29283 7.01612 7.26138 7.62402 6.75586L12.4268 2.75977C12.4758 2.93309 12.5039 3.11568 12.5039 3.30469V8.69531C12.5039 9.79988 11.6085 10.6953 10.5039 10.6953H2.50391C1.39934 10.6953 0.503906 9.79988 0.503906 8.69531V3.30469C0.503906 3.11535 0.53189 2.93238 0.581055 2.75879L5.38574 6.75586ZM10.5039 1.30469C10.8695 1.30469 11.2109 1.40483 11.5059 1.57617L6.66406 5.60254C6.58297 5.66963 6.46977 5.67852 6.38086 5.62793L6.34473 5.60254L1.50195 1.57617C1.79686 1.40483 2.13827 1.30469 2.50391 1.30469H10.5039Z" fill="white"/>
</svg>
