<svg width="13" height="13" viewBox="0 0 13 13" fill="none" xmlns="http://www.w3.org/2000/svg">
<path d="M11.5986 1.27235C11.4283 1.10276 11.226 0.968594 11.0036 0.877603C10.7811 0.786613 10.5428 0.740602 10.3025 0.742229C10.0621 0.743856 9.82448 0.793089 9.60327 0.887083C9.38206 0.981077 9.18166 1.11797 9.01366 1.28985L2.15106 8.15256C1.8976 8.40602 1.71692 8.72293 1.62792 9.07015L1.04673 11.3375C0.971218 11.6321 1.23902 11.8998 1.53358 11.8243L3.80104 11.2427C4.14816 11.1537 4.46499 10.973 4.71838 10.7196L11.5811 3.85681C11.753 3.68888 11.8899 3.48854 11.984 3.26736C12.078 3.04618 12.1272 2.80856 12.1289 2.56823C12.1305 2.32791 12.0845 2.08964 11.9934 1.86721C11.9024 1.64478 11.7682 1.4426 11.5986 1.27235Z" fill="currentColor" stroke="currentColor" stroke-linecap="round" stroke-linejoin="round"/>
</svg>
