<svg width="11" height="11" viewBox="0 0 11 11" fill="none" xmlns="http://www.w3.org/2000/svg">
<path d="M4.84103 0.828788C4.97564 0.59768 5.30952 0.597679 5.44412 0.828787L6.87021 3.27722C6.91952 3.36188 7.00215 3.42192 7.0979 3.44265L9.86718 4.04233C10.1286 4.09893 10.2318 4.41647 10.0536 4.6159L8.16563 6.7288C8.10035 6.80186 8.06879 6.89899 8.07866 6.99646L8.36409 9.81552C8.39103 10.0816 8.12092 10.2779 7.87618 10.17L5.2833 9.02742C5.19364 8.98791 5.09151 8.98791 5.00186 9.02742L2.40898 10.17C2.16423 10.2779 1.89412 10.0816 1.92107 9.81552L2.20649 6.99646C2.21636 6.89899 2.1848 6.80186 2.11952 6.7288L0.231607 4.6159C0.0534062 4.41647 0.156578 4.09893 0.417972 4.04233L3.18726 3.44265C3.28301 3.42192 3.36564 3.36188 3.41495 3.27722L4.84103 0.828788Z" fill="currentColor"/>
</svg>
