<svg width="13" height="13" viewBox="0 0 13 13" fill="none" xmlns="http://www.w3.org/2000/svg">
<path d="M12.1067 11.553C12.1067 11.6754 12.0581 11.7928 11.9715 11.8794C11.885 11.9659 11.7676 12.0146 11.6452 12.0146H0.568228C0.44582 12.0146 0.328426 11.9659 0.241871 11.8794C0.155316 11.7928 0.106689 11.6754 0.106689 11.553V2.32226C0.106689 2.19985 0.155316 2.08245 0.241871 1.9959C0.328426 1.90934 0.44582 1.86072 0.568228 1.86072C0.690636 1.86072 0.80803 1.90934 0.894585 1.9959C0.98114 2.08245 1.02977 2.19985 1.02977 2.32226V8.59341L3.93169 5.68572C4.01919 5.59905 4.13738 5.55043 4.26054 5.55043C4.3837 5.55043 4.50188 5.59905 4.58938 5.68572L6.10669 7.20879L8.9163 4.39918L8.08554 3.57418C8.02292 3.50745 7.98048 3.42435 7.96313 3.33451C7.94577 3.24466 7.95421 3.15174 7.98746 3.06649C8.02339 2.98293 8.08292 2.91168 8.15876 2.86146C8.23459 2.81125 8.32343 2.78426 8.41438 2.78379H10.7221C10.8445 2.78379 10.9619 2.83242 11.0484 2.91898C11.135 3.00553 11.1836 3.12293 11.1836 3.24533V5.55303C11.1839 5.64415 11.1572 5.73331 11.1069 5.80928C11.0566 5.88526 10.9849 5.94464 10.9009 5.97995C10.844 6.00256 10.7833 6.0143 10.7221 6.01456C10.5995 6.01405 10.4818 5.96656 10.3932 5.88187L9.56823 5.0511L6.43554 8.18956C6.34803 8.27623 6.22985 8.32485 6.10669 8.32485C5.98353 8.32485 5.86535 8.27623 5.77784 8.18956L4.26054 6.66649L1.02977 9.89726V11.0915H11.6452C11.7676 11.0915 11.885 11.1401 11.9715 11.2267C12.0581 11.3132 12.1067 11.4306 12.1067 11.553Z" fill="#AEB9E1"/>
</svg>
