<svg width="13" height="13" viewBox="0 0 13 13" fill="none" xmlns="http://www.w3.org/2000/svg">
<path d="M5.28526 1.53879H7.85671C7.97038 1.53879 8.07939 1.49364 8.15976 1.41326C8.24013 1.33289 8.28528 1.22388 8.28528 1.11022C8.28528 0.99655 8.24013 0.88754 8.15976 0.807167C8.07939 0.726794 7.97038 0.681641 7.85671 0.681641H5.28526C5.1716 0.681641 5.06259 0.726794 4.98222 0.807167C4.90184 0.88754 4.85669 0.99655 4.85669 1.11022C4.85669 1.22388 4.90184 1.33289 4.98222 1.41326C5.06259 1.49364 5.1716 1.53879 5.28526 1.53879Z" fill="#AEB9E1"/>
<path d="M6.57112 2.39587C5.55395 2.39587 4.55962 2.6975 3.71388 3.26261C2.86814 3.82772 2.20896 4.63093 1.8197 5.57067C1.43045 6.51041 1.3286 7.54447 1.52704 8.5421C1.72548 9.53972 2.2153 10.4561 2.93454 11.1753C3.65379 11.8946 4.57017 12.3844 5.56779 12.5828C6.56541 12.7813 7.59948 12.6794 8.53922 12.2902C9.47896 11.9009 10.2822 11.2417 10.8473 10.396C11.4124 9.55026 11.714 8.55593 11.714 7.53877C11.7112 6.17566 11.1684 4.86919 10.2046 3.90532C9.2407 2.94145 7.93423 2.3987 6.57112 2.39587ZM8.99792 5.72268L6.87648 7.84413C6.79456 7.92334 6.68507 7.96761 6.57112 7.96761C6.45717 7.96761 6.34768 7.92334 6.26576 7.84413C6.18528 7.76287 6.14013 7.65313 6.14013 7.53877C6.14013 7.4244 6.18528 7.31466 6.26576 7.23341L8.3872 5.11196C8.42563 5.06514 8.47343 5.02689 8.52754 4.99965C8.58164 4.97242 8.64084 4.95682 8.70134 4.95385C8.76184 4.95088 8.82229 4.9606 8.8788 4.9824C8.93531 5.0042 8.98663 5.03759 9.02946 5.08042C9.07229 5.12325 9.10568 5.17457 9.12748 5.23108C9.14928 5.2876 9.15901 5.34805 9.15604 5.40854C9.15307 5.46904 9.13746 5.52825 9.11023 5.58235C9.083 5.63645 9.04474 5.68426 8.99792 5.72268Z" fill="#AEB9E1"/>
</svg>
