<svg width="14" height="14" viewBox="0 0 14 14" fill="none" xmlns="http://www.w3.org/2000/svg">
<path d="M8.73984 0C9.01582 0.000190676 9.23984 0.223975 9.23984 0.5V3.11426L11.5055 1.80664C11.7445 1.66862 12.0509 1.75038 12.1891 1.98926L13.9312 5.00781C14.0692 5.24696 13.9868 5.55235 13.7477 5.69043L11.4801 6.99902L13.7477 8.30859C13.9867 8.44662 14.069 8.7521 13.9312 8.99121L12.1891 12.0098C12.051 12.2488 11.7455 12.3303 11.5064 12.1924L9.23984 10.8828V13.5C9.23984 13.776 9.01582 13.9998 8.73984 14H5.25546C4.97946 13.9998 4.75546 13.776 4.75546 13.5V10.8828L2.49179 12.1904C2.25271 12.3282 1.94716 12.2469 1.80917 12.0078L0.0669861 8.98926C-0.0705678 8.75037 0.011091 8.44481 0.249603 8.30664L2.51328 6.99902L0.25058 5.69238C0.0116852 5.55427 -0.0708538 5.24882 0.0669861 5.00977L1.80917 1.99121C1.94718 1.75244 2.25283 1.67103 2.49179 1.80859L4.75546 3.11523V0.5C4.75546 0.223956 4.97946 0.000159176 5.25546 0H8.73984ZM6.9996 5.12695C5.9655 5.12695 5.12656 5.96568 5.12656 7C5.12669 8.03421 5.96558 8.87305 6.9996 8.87305C8.03341 8.87279 8.87154 8.03405 8.87167 7C8.87167 5.96584 8.03349 5.12721 6.9996 5.12695Z" fill="currentColor"/>
</svg>
