<svg width="10" height="11" viewBox="0 0 10 11" fill="none" xmlns="http://www.w3.org/2000/svg">
<path d="M9.23077 1.19708H0.769231C0.565218 1.19708 0.369561 1.27813 0.225302 1.42238C0.0810437 1.56664 0 1.7623 0 1.96631V8.88939C0 9.0934 0.0810437 9.28906 0.225302 9.43332C0.369561 9.57758 0.565218 9.65862 0.769231 9.65862H9.23077C9.43478 9.65862 9.63044 9.57758 9.7747 9.43332C9.91896 9.28906 10 9.0934 10 8.88939V1.96631C10 1.7623 9.91896 1.56664 9.7747 1.42238C9.63044 1.27813 9.43478 1.19708 9.23077 1.19708V1.19708ZM5 5.81247C4.38796 5.81247 3.80099 5.56934 3.36822 5.13656C2.93544 4.70378 2.69231 4.11681 2.69231 3.50477C2.69231 3.40277 2.73283 3.30494 2.80496 3.23281C2.87709 3.16068 2.97492 3.12016 3.07692 3.12016C3.17893 3.12016 3.27676 3.16068 3.34889 3.23281C3.42102 3.30494 3.46154 3.40277 3.46154 3.50477C3.46154 3.9128 3.62363 4.30411 3.91214 4.59263C4.20066 4.88115 4.59197 5.04324 5 5.04324C5.40803 5.04324 5.79934 4.88115 6.08786 4.59263C6.37637 4.30411 6.53846 3.9128 6.53846 3.50477C6.53846 3.40277 6.57898 3.30494 6.65111 3.23281C6.72324 3.16068 6.82107 3.12016 6.92308 3.12016C7.02508 3.12016 7.12291 3.16068 7.19504 3.23281C7.26717 3.30494 7.30769 3.40277 7.30769 3.50477C7.30769 4.11681 7.06456 4.70378 6.63179 5.13656C6.19901 5.56934 5.61204 5.81247 5 5.81247V5.81247Z" fill="currentColor"/>
</svg>
