<svg width="13" height="13" viewBox="0 0 13 13" fill="none" xmlns="http://www.w3.org/2000/svg">
<path d="M6.59375 0.290771C9.90746 0.290771 12.5938 2.97706 12.5938 6.29077C12.5938 9.60448 9.90746 12.2908 6.59375 12.2908C3.28004 12.2908 0.59375 9.60448 0.59375 6.29077C0.59375 2.97706 3.28004 0.290771 6.59375 0.290771ZM6.58984 5.36108C6.35332 5.36108 6.16142 5.55334 6.16113 5.78979V8.78979C6.16113 9.02649 6.35315 9.21851 6.58984 9.21851C6.82622 9.21813 7.01855 9.02626 7.01855 8.78979V5.78979C7.01827 5.55357 6.82604 5.36146 6.58984 5.36108ZM6.59082 3.53198C6.26296 3.53221 5.99735 3.79789 5.99707 4.12573C5.99707 4.45382 6.26279 4.72023 6.59082 4.72046C6.91886 4.72023 7.18555 4.45382 7.18555 4.12573C7.18526 3.79789 6.91868 3.53221 6.59082 3.53198Z" fill="#AEB9E1"/>
</svg>
