<svg width="15" height="15" viewBox="0 0 15 15" fill="none" xmlns="http://www.w3.org/2000/svg">
<path d="M7.58222 2.74033C11.7375 2.74033 13.8503 5.8044 14.4777 6.91122C14.6173 7.15738 14.6173 7.45022 14.4777 7.69638C13.8505 8.80297 11.7379 11.8683 7.58222 11.8683C3.4269 11.8681 1.31496 8.80299 0.687685 7.69638C0.548156 7.45022 0.548156 7.15738 0.687685 6.91122C1.31516 5.80438 3.42725 2.74053 7.58222 2.74033ZM7.58417 4.76865C6.18381 4.76865 5.04804 5.90442 5.04804 7.30478C5.04827 8.70494 6.18395 9.83994 7.58417 9.83994C8.98428 9.83981 10.1191 8.70486 10.1193 7.30478C10.1193 5.9045 8.98442 4.76877 7.58417 4.76865Z" fill="currentColor"/>
</svg>
